<?xml version="1.0" encoding="UTF-8" standalone="no"?>
<!-- Created with Inkscape (http://www.inkscape.org/) -->

<svg
   xmlns:dc="http://purl.org/dc/elements/1.1/"
   xmlns:cc="http://creativecommons.org/ns#"
   xmlns:rdf="http://www.w3.org/1999/02/22-rdf-syntax-ns#"
   xmlns:svg="http://www.w3.org/2000/svg"
   xmlns="http://www.w3.org/2000/svg"
   xmlns:sodipodi="http://sodipodi.sourceforge.net/DTD/sodipodi-0.dtd"
   xmlns:inkscape="http://www.inkscape.org/namespaces/inkscape"
   id="svg2"
   version="1.1"
   inkscape:version="0.91 r13725"
   xml:space="preserve"
   width="400.39264"
   height="75.094658"
   viewBox="0 0 400.39262 75.094658"
   sodipodi:docname="twitter.svg"><metadata
     id="metadata8"><rdf:RDF><cc:Work
         rdf:about=""><dc:format>image/svg+xml</dc:format><dc:type
           rdf:resource="http://purl.org/dc/dcmitype/StillImage" /><dc:title></dc:title></cc:Work></rdf:RDF></metadata><defs
     id="defs6"><clipPath
       clipPathUnits="userSpaceOnUse"
       id="clipPath16"><path
         d="m 260.851,513.451 -0.064,-22.658 c 0,-10.909 8.842,-19.75 19.75,-19.75 l 0,0 8.585,0 c 3.123,0 5.655,2.532 5.655,5.655 l 0,0 c 0,3.123 -2.532,5.654 -5.655,5.654 l 0,0 -8.504,0 c -4.672,0 -8.458,3.787 -8.458,8.459 l 0,0 0,2.849 14.136,0 c 3.123,0 5.655,2.532 5.655,5.655 l 0,0 c 0,3.123 -2.532,5.654 -5.655,5.654 l 0,0 -14.136,0 0,8.482 c 0,3.122 -2.532,5.654 -5.655,5.654 l 0,0 c -3.123,0 -5.654,-2.532 -5.654,-5.654"
         id="path18"
         inkscape:connector-curvature="0" /></clipPath><linearGradient
       x1="0"
       y1="0"
       x2="1"
       y2="0"
       gradientUnits="userSpaceOnUse"
       gradientTransform="matrix(0,-48.371979,-48.371979,0,277.78174,519.49561)"
       spreadMethod="pad"
       id="linearGradient24"><stop
         style="stop-opacity:1;stop-color:#343333"
         offset="0"
         id="stop26" /><stop
         style="stop-opacity:1;stop-color:#111111"
         offset="1"
         id="stop28" /></linearGradient><clipPath
       clipPathUnits="userSpaceOnUse"
       id="clipPath36"><path
         d="m 372.525,513.451 0,-22.658 c 0,-10.909 8.777,-19.75 19.684,-19.75 l 0,0 2.932,0 c 3.122,0 5.653,2.532 5.653,5.655 l 0,0 c 0,3.123 -2.531,5.654 -5.653,5.654 l 0,0 -2.85,0 c -4.671,0 -8.457,3.787 -8.457,8.459 l 0,0 0,2.849 8.478,0 c 3.124,0 5.656,2.532 5.656,5.655 l 0,0 c 0,3.123 -2.532,5.654 -5.656,5.654 l 0,0 -8.478,0 0,8.482 c 0,3.122 -2.532,5.654 -5.657,5.654 l 0,0 c -3.121,0 -5.652,-2.532 -5.652,-5.654"
         id="path38"
         inkscape:connector-curvature="0" /></clipPath><linearGradient
       x1="0"
       y1="0"
       x2="1"
       y2="0"
       gradientUnits="userSpaceOnUse"
       gradientTransform="matrix(0,-48.371979,-48.371979,0,386.65967,519.49561)"
       spreadMethod="pad"
       id="linearGradient44"><stop
         style="stop-opacity:1;stop-color:#343333"
         offset="0"
         id="stop46" /><stop
         style="stop-opacity:1;stop-color:#111111"
         offset="1"
         id="stop48" /></linearGradient><clipPath
       clipPathUnits="userSpaceOnUse"
       id="clipPath56"><path
         d="m 402.209,513.451 0,-22.658 c 0,-10.909 8.777,-19.75 19.685,-19.75 l 0,0 2.934,0 c 3.119,0 5.653,2.532 5.653,5.655 l 0,0 c 0,3.123 -2.534,5.654 -5.653,5.654 l 0,0 -2.852,0 c -4.672,0 -8.458,3.787 -8.458,8.459 l 0,0 0,2.849 8.479,0 c 3.125,0 5.656,2.532 5.656,5.655 l 0,0 c 0,3.123 -2.531,5.654 -5.656,5.654 l 0,0 -8.479,0 0,8.482 c 0,3.122 -2.532,5.654 -5.656,5.654 l 0,0 c -3.122,0 -5.653,-2.532 -5.653,-5.654"
         id="path58"
         inkscape:connector-curvature="0" /></clipPath><linearGradient
       x1="0"
       y1="0"
       x2="1"
       y2="0"
       gradientUnits="userSpaceOnUse"
       gradientTransform="matrix(0,-48.371979,-48.371979,0,416.34473,519.49561)"
       spreadMethod="pad"
       id="linearGradient64"><stop
         style="stop-opacity:1;stop-color:#343333"
         offset="0"
         id="stop66" /><stop
         style="stop-opacity:1;stop-color:#111111"
         offset="1"
         id="stop68" /></linearGradient><clipPath
       clipPathUnits="userSpaceOnUse"
       id="clipPath76"><path
         d="m 486.967,504.969 c -9.368,0 -16.874,-7.594 -16.874,-16.963 l 0,0 0,-11.308 c 0,-3.123 2.53,-5.655 5.653,-5.655 l 0,0 c 3.124,0 5.658,2.532 5.658,5.655 l 0,0 -0.094,11.308 c 0,3.123 2.533,5.654 5.657,5.654 l 0,0 8.482,0 c 3.12,0 5.653,2.532 5.653,5.655 l 0,0 c 0,3.123 -2.533,5.654 -5.653,5.654 l 0,0 -8.482,0 z"
         id="path78"
         inkscape:connector-curvature="0" /></clipPath><linearGradient
       x1="0"
       y1="0"
       x2="1"
       y2="0"
       gradientUnits="userSpaceOnUse"
       gradientTransform="matrix(0,-48.372192,-48.372192,0,485.59766,519.49561)"
       spreadMethod="pad"
       id="linearGradient84"><stop
         style="stop-opacity:1;stop-color:#343333"
         offset="0"
         id="stop86" /><stop
         style="stop-opacity:1;stop-color:#111111"
         offset="1"
         id="stop88" /></linearGradient><clipPath
       clipPathUnits="userSpaceOnUse"
       id="clipPath96"><path
         d="m 341.427,499.315 0,-11.309 c 0,-3.123 -2.532,-5.654 -5.654,-5.654 l 0,0 c -3.124,0 -5.656,2.531 -5.656,5.654 l 0,0 0,11.309 c 0,3.123 -2.531,5.654 -5.653,5.654 l 0,0 c -3.124,0 -5.655,-2.531 -5.655,-5.654 l 0,0 0,-11.309 c 0,-3.123 -2.531,-5.654 -5.654,-5.654 l 0,0 c -3.123,0 -5.655,2.531 -5.655,5.654 l 0,0 0,11.309 c 0,3.123 -2.531,5.654 -5.654,5.654 l 0,0 c -3.123,0 -5.654,-2.531 -5.654,-5.654 l 0,0 0,-11.309 c 0,-9.369 7.594,-16.963 16.963,-16.963 l 0,0 c 4.351,0 8.306,1.652 11.309,4.345 l 0,0 c 3.002,-2.693 6.957,-4.345 11.309,-4.345 l 0,0 c 9.368,0 16.961,7.594 16.961,16.963 l 0,0 0,11.309 c 0,3.123 -2.531,5.654 -5.653,5.654 l 0,0 c -3.123,0 -5.654,-2.531 -5.654,-5.654"
         id="path98"
         inkscape:connector-curvature="0" /></clipPath><linearGradient
       x1="0"
       y1="0"
       x2="1"
       y2="0"
       gradientUnits="userSpaceOnUse"
       gradientTransform="matrix(0,-48.372192,-48.372192,0,324.46338,519.49561)"
       spreadMethod="pad"
       id="linearGradient104"><stop
         style="stop-opacity:1;stop-color:#343333"
         offset="0"
         id="stop106" /><stop
         style="stop-opacity:1;stop-color:#111111"
         offset="1"
         id="stop108" /></linearGradient><clipPath
       clipPathUnits="userSpaceOnUse"
       id="clipPath116"><path
         d="m 356.976,499.315 0,-22.617 c 0,-3.123 2.53,-5.655 5.654,-5.655 l 0,0 c 3.124,0 5.654,2.532 5.654,5.655 l 0,0 0,22.617 c 0,3.123 -2.53,5.654 -5.654,5.654 l 0,0 c -3.124,0 -5.654,-2.531 -5.654,-5.654"
         id="path118"
         inkscape:connector-curvature="0" /></clipPath><linearGradient
       x1="0"
       y1="0"
       x2="1"
       y2="0"
       gradientUnits="userSpaceOnUse"
       gradientTransform="matrix(0,-48.372192,-48.372192,0,362.62988,519.49561)"
       spreadMethod="pad"
       id="linearGradient124"><stop
         style="stop-opacity:1;stop-color:#343333"
         offset="0"
         id="stop126" /><stop
         style="stop-opacity:1;stop-color:#111111"
         offset="1"
         id="stop128" /></linearGradient><clipPath
       clipPathUnits="userSpaceOnUse"
       id="clipPath136"><path
         d="m 356.976,513.451 c 0,-3.123 2.53,-5.655 5.654,-5.655 l 0,0 c 3.124,0 5.654,2.532 5.654,5.655 l 0,0 c 0,3.122 -2.53,5.654 -5.654,5.654 l 0,0 c -3.124,0 -5.654,-2.532 -5.654,-5.654"
         id="path138"
         inkscape:connector-curvature="0" /></clipPath><linearGradient
       x1="0"
       y1="0"
       x2="1"
       y2="0"
       gradientUnits="userSpaceOnUse"
       gradientTransform="matrix(0,-48.37149,-48.37149,0,362.62988,519.49561)"
       spreadMethod="pad"
       id="linearGradient144"><stop
         style="stop-opacity:1;stop-color:#343333"
         offset="0"
         id="stop146" /><stop
         style="stop-opacity:1;stop-color:#111111"
         offset="1"
         id="stop148" /></linearGradient><clipPath
       clipPathUnits="userSpaceOnUse"
       id="clipPath156"><path
         d="m 0,595.28 841.89,0 L 841.89,0 0,0 0,595.28 Z"
         id="path158"
         inkscape:connector-curvature="0" /></clipPath><clipPath
       clipPathUnits="userSpaceOnUse"
       id="clipPath168"><path
         d="m 431.893,489.42 c 0,-10.725 7.594,-18.377 16.961,-18.377 l 0,0 12.05,0 c 2.734,0 4.948,2.216 4.948,4.948 l 0,0 c 0,2.733 -2.214,4.947 -4.948,4.947 l 0,0 -12.05,0 c -2.639,0 -4.859,1.811 -5.479,4.259 l 0,0 c 0,0 16.49,-0.002 18.665,-0.002 l 0,0 c 2.95,0 3.779,3.662 3.779,5.638 l 0,0 0.008,0 c 0,7.808 -7.597,14.136 -16.966,14.136 l 0,0 c -9.371,0 -16.968,-6.139 -16.968,-15.549 m 16.968,7.538 c 3.124,0 5.652,-2.109 5.652,-4.711 l 0,0 -11.308,0 c 0,2.602 2.533,4.711 5.656,4.711"
         id="path170"
         inkscape:connector-curvature="0" /></clipPath><linearGradient
       x1="0"
       y1="0"
       x2="1"
       y2="0"
       gradientUnits="userSpaceOnUse"
       gradientTransform="matrix(0,-48.372192,-48.372192,0,448.87207,519.49561)"
       spreadMethod="pad"
       id="linearGradient176"><stop
         style="stop-opacity:1;stop-color:#343333"
         offset="0"
         id="stop178" /><stop
         style="stop-opacity:1;stop-color:#111111"
         offset="1"
         id="stop180" /></linearGradient><clipPath
       clipPathUnits="userSpaceOnUse"
       id="clipPath188"><path
         d="m 0,595.28 841.89,0 L 841.89,0 0,0 0,595.28 Z"
         id="path190"
         inkscape:connector-curvature="0" /></clipPath><clipPath
       clipPathUnits="userSpaceOnUse"
       id="clipPath198"><path
         d="m 0,198.427 841.89,0 0,198.427 -841.89,0 0,-198.427 z"
         id="path200"
         inkscape:connector-curvature="0" /></clipPath><linearGradient
       x1="0"
       y1="0"
       x2="1"
       y2="0"
       gradientUnits="userSpaceOnUse"
       gradientTransform="matrix(-1.53e-5,-199.707,-199.707,1.53e-5,420.94482,398.46582)"
       spreadMethod="pad"
       id="linearGradient206"><stop
         style="stop-opacity:1;stop-color:#343333"
         offset="0"
         id="stop208" /><stop
         style="stop-opacity:1;stop-color:#111111"
         offset="1"
         id="stop210" /></linearGradient><clipPath
       clipPathUnits="userSpaceOnUse"
       id="clipPath218"><path
         d="m 260.851,116.597 -0.064,-22.658 c 0,-10.907 8.842,-19.749 19.75,-19.749 l 0,0 8.585,0 c 3.123,0 5.655,2.531 5.655,5.654 l 0,0 c 0,3.123 -2.532,5.654 -5.655,5.654 l 0,0 -8.504,0 c -4.672,0 -8.458,3.787 -8.458,8.459 l 0,0 0,2.85 14.136,0 c 3.123,0 5.655,2.532 5.655,5.653 l 0,0 c 0,3.124 -2.532,5.655 -5.655,5.655 l 0,0 -14.136,0 0,8.482 c 0,3.123 -2.532,5.655 -5.655,5.655 l 0,0 c -3.123,0 -5.654,-2.532 -5.654,-5.655"
         id="path220"
         inkscape:connector-curvature="0" /></clipPath><linearGradient
       x1="0"
       y1="0"
       x2="1"
       y2="0"
       gradientUnits="userSpaceOnUse"
       gradientTransform="matrix(0,-61.541138,-61.541138,0,277.78174,129.53027)"
       spreadMethod="pad"
       id="linearGradient226"><stop
         style="stop-opacity:1;stop-color:#ffffff"
         offset="0"
         id="stop228" /><stop
         style="stop-opacity:1;stop-color:#ffffff"
         offset="0.4854273"
         id="stop230" /><stop
         style="stop-opacity:1;stop-color:#a7a9ac"
         offset="1"
         id="stop232" /></linearGradient><clipPath
       clipPathUnits="userSpaceOnUse"
       id="clipPath240"><path
         d="m 372.525,116.597 0,-22.658 c 0,-10.907 8.777,-19.749 19.684,-19.749 l 0,0 2.932,0 c 3.122,0 5.653,2.531 5.653,5.654 l 0,0 c 0,3.123 -2.531,5.654 -5.653,5.654 l 0,0 -2.85,0 c -4.671,0 -8.457,3.787 -8.457,8.459 l 0,0 0,2.85 8.478,0 c 3.124,0 5.656,2.532 5.656,5.653 l 0,0 c 0,3.124 -2.532,5.655 -5.656,5.655 l 0,0 -8.478,0 0,8.482 c 0,3.123 -2.532,5.655 -5.657,5.655 l 0,0 c -3.121,0 -5.652,-2.532 -5.652,-5.655"
         id="path242"
         inkscape:connector-curvature="0" /></clipPath><linearGradient
       x1="0"
       y1="0"
       x2="1"
       y2="0"
       gradientUnits="userSpaceOnUse"
       gradientTransform="matrix(0,-61.541138,-61.541138,0,386.65967,129.53027)"
       spreadMethod="pad"
       id="linearGradient248"><stop
         style="stop-opacity:1;stop-color:#ffffff"
         offset="0"
         id="stop250" /><stop
         style="stop-opacity:1;stop-color:#ffffff"
         offset="0.4854273"
         id="stop252" /><stop
         style="stop-opacity:1;stop-color:#a7a9ac"
         offset="1"
         id="stop254" /></linearGradient><clipPath
       clipPathUnits="userSpaceOnUse"
       id="clipPath262"><path
         d="m 402.209,116.597 0,-22.658 c 0,-10.907 8.777,-19.749 19.685,-19.749 l 0,0 2.934,0 c 3.119,0 5.653,2.531 5.653,5.654 l 0,0 c 0,3.123 -2.534,5.654 -5.653,5.654 l 0,0 -2.852,0 c -4.672,0 -8.458,3.787 -8.458,8.459 l 0,0 0,2.85 8.479,0 c 3.125,0 5.656,2.532 5.656,5.653 l 0,0 c 0,3.124 -2.531,5.655 -5.656,5.655 l 0,0 -8.479,0 0,8.482 c 0,3.123 -2.532,5.655 -5.656,5.655 l 0,0 c -3.122,0 -5.653,-2.532 -5.653,-5.655"
         id="path264"
         inkscape:connector-curvature="0" /></clipPath><linearGradient
       x1="0"
       y1="0"
       x2="1"
       y2="0"
       gradientUnits="userSpaceOnUse"
       gradientTransform="matrix(0,-61.541138,-61.541138,0,416.34473,129.53027)"
       spreadMethod="pad"
       id="linearGradient270"><stop
         style="stop-opacity:1;stop-color:#ffffff"
         offset="0"
         id="stop272" /><stop
         style="stop-opacity:1;stop-color:#ffffff"
         offset="0.4854273"
         id="stop274" /><stop
         style="stop-opacity:1;stop-color:#a7a9ac"
         offset="1"
         id="stop276" /></linearGradient><clipPath
       clipPathUnits="userSpaceOnUse"
       id="clipPath284"><path
         d="m 486.967,108.115 c -9.368,0 -16.874,-7.593 -16.874,-16.962 l 0,0 0,-11.309 c 0,-3.123 2.53,-5.654 5.653,-5.654 l 0,0 c 3.124,0 5.658,2.531 5.658,5.654 l 0,0 -0.094,11.309 c 0,3.122 2.533,5.654 5.657,5.654 l 0,0 8.482,0 c 3.12,0 5.653,2.532 5.653,5.653 l 0,0 c 0,3.124 -2.533,5.655 -5.653,5.655 l 0,0 -8.482,0 z"
         id="path286"
         inkscape:connector-curvature="0" /></clipPath><linearGradient
       x1="0"
       y1="0"
       x2="1"
       y2="0"
       gradientUnits="userSpaceOnUse"
       gradientTransform="matrix(0,-61.541138,-61.541138,0,485.59766,129.53027)"
       spreadMethod="pad"
       id="linearGradient292"><stop
         style="stop-opacity:1;stop-color:#ffffff"
         offset="0"
         id="stop294" /><stop
         style="stop-opacity:1;stop-color:#ffffff"
         offset="0.4854273"
         id="stop296" /><stop
         style="stop-opacity:1;stop-color:#a7a9ac"
         offset="1"
         id="stop298" /></linearGradient><clipPath
       clipPathUnits="userSpaceOnUse"
       id="clipPath306"><path
         d="m 341.427,102.46 0,-11.307 c 0,-3.123 -2.532,-5.655 -5.654,-5.655 l 0,0 c -3.124,0 -5.656,2.532 -5.656,5.655 l 0,0 0,11.307 c 0,3.124 -2.531,5.655 -5.653,5.655 l 0,0 c -3.124,0 -5.655,-2.531 -5.655,-5.655 l 0,0 0,-11.307 c 0,-3.123 -2.531,-5.655 -5.654,-5.655 l 0,0 c -3.123,0 -5.655,2.532 -5.655,5.655 l 0,0 0,11.307 c 0,3.124 -2.531,5.655 -5.654,5.655 l 0,0 c -3.123,0 -5.654,-2.531 -5.654,-5.655 l 0,0 0,-11.307 c 0,-9.369 7.594,-16.963 16.963,-16.963 l 0,0 c 4.351,0 8.306,1.652 11.309,4.344 l 0,0 c 3.002,-2.692 6.957,-4.344 11.309,-4.344 l 0,0 c 9.368,0 16.961,7.594 16.961,16.963 l 0,0 0,11.307 c 0,3.124 -2.531,5.655 -5.653,5.655 l 0,0 c -3.123,0 -5.654,-2.531 -5.654,-5.655"
         id="path308"
         inkscape:connector-curvature="0" /></clipPath><linearGradient
       x1="0"
       y1="0"
       x2="1"
       y2="0"
       gradientUnits="userSpaceOnUse"
       gradientTransform="matrix(0,-61.541138,-61.541138,0,324.46338,129.53027)"
       spreadMethod="pad"
       id="linearGradient314"><stop
         style="stop-opacity:1;stop-color:#ffffff"
         offset="0"
         id="stop316" /><stop
         style="stop-opacity:1;stop-color:#ffffff"
         offset="0.4854273"
         id="stop318" /><stop
         style="stop-opacity:1;stop-color:#a7a9ac"
         offset="1"
         id="stop320" /></linearGradient><clipPath
       clipPathUnits="userSpaceOnUse"
       id="clipPath328"><path
         d="m 356.976,102.46 0,-22.616 c 0,-3.123 2.53,-5.654 5.654,-5.654 l 0,0 c 3.124,0 5.654,2.531 5.654,5.654 l 0,0 0,22.616 c 0,3.124 -2.53,5.655 -5.654,5.655 l 0,0 c -3.124,0 -5.654,-2.531 -5.654,-5.655"
         id="path330"
         inkscape:connector-curvature="0" /></clipPath><linearGradient
       x1="0"
       y1="0"
       x2="1"
       y2="0"
       gradientUnits="userSpaceOnUse"
       gradientTransform="matrix(0,-61.541138,-61.541138,0,362.62988,129.53027)"
       spreadMethod="pad"
       id="linearGradient336"><stop
         style="stop-opacity:1;stop-color:#ffffff"
         offset="0"
         id="stop338" /><stop
         style="stop-opacity:1;stop-color:#ffffff"
         offset="0.4854273"
         id="stop340" /><stop
         style="stop-opacity:1;stop-color:#a7a9ac"
         offset="1"
         id="stop342" /></linearGradient><clipPath
       clipPathUnits="userSpaceOnUse"
       id="clipPath350"><path
         d="m 356.976,116.597 c 0,-3.123 2.53,-5.654 5.654,-5.654 l 0,0 c 3.124,0 5.654,2.531 5.654,5.654 l 0,0 c 0,3.123 -2.53,5.655 -5.654,5.655 l 0,0 c -3.124,0 -5.654,-2.532 -5.654,-5.655"
         id="path352"
         inkscape:connector-curvature="0" /></clipPath><linearGradient
       x1="0"
       y1="0"
       x2="1"
       y2="0"
       gradientUnits="userSpaceOnUse"
       gradientTransform="matrix(0,-61.541138,-61.541138,0,362.62988,129.53027)"
       spreadMethod="pad"
       id="linearGradient358"><stop
         style="stop-opacity:1;stop-color:#ffffff"
         offset="0"
         id="stop360" /><stop
         style="stop-opacity:1;stop-color:#ffffff"
         offset="0.4854273"
         id="stop362" /><stop
         style="stop-opacity:1;stop-color:#a7a9ac"
         offset="1"
         id="stop364" /></linearGradient><clipPath
       clipPathUnits="userSpaceOnUse"
       id="clipPath372"><path
         d="m 551.702,128.241 c -0.843,-0.43 -1.93,-1.234 -2.684,-1.84 l 0,0 c 1.711,3.342 0.209,2.38 -2.703,-0.656 l 0,0 c -3.903,-4.069 -7.295,-9.682 -10.069,-18.342 l 0,0 c -6.034,6.22 -16.229,10.422 -26.452,14.334 l 0,0 c -2.285,0.874 -2.87,1.658 -2.303,-1.398 l 0,0 c 0.599,-3.235 2.95,-6.162 6.889,-8.55 l 0,0 c -1.331,-0.067 -2.819,-0.222 -3.977,-0.516 l 0,0 c -1.183,-0.3 -1.126,-0.242 -0.776,-1.404 l 0,0 c 1.063,-3.512 4.126,-6.131 9.14,-7.567 l 0,0 c -1.735,-0.134 -3.41,-0.527 -4.638,-1.418 l 0,0 c -1.12,-0.808 -1.113,-0.889 -0.426,-1.943 l 0,0 c 1.807,-2.775 4.885,-4.306 9.729,-4.356 l 0,0 c -5.118,-2.609 -3.445,-7.442 3.008,-7.441 l 0,0 c -9.85,-9.792 -23.11,-8.243 -32.064,-1.218 l 0,0 c 13.642,-19.278 40.847,-20.817 59.537,-10.21 l 0,0 c 7.957,4.518 14.247,11.714 16.999,21.765 l 0,0 c 4.399,0.053 7.959,1.367 10.189,3.936 l 0,0 c -2.864,-0.134 -5.574,0.006 -7.996,0.551 l 0,0 c -1.97,0.443 -1.633,0.353 0.01,0.695 l 0,0 c 4.428,0.922 7.268,2.319 7.583,4.468 l 0,0 c -2.915,-0.925 -5.904,-0.96 -9.084,-0.396 l 0,0 c -1.473,0.259 -1.083,0.124 -1.41,1.562 l 0,0 c -2.347,10.39 -10.512,15.276 -18.186,15.42 l 0,0 c 9.389,2.015 9.697,6.058 0.818,2.882 l 0,0 c 2.203,1.357 3.068,2.652 1.926,2.652 l 0,0 c -0.543,0 -1.539,-0.293 -3.06,-1.01"
         id="path374"
         inkscape:connector-curvature="0" /></clipPath><linearGradient
       x1="0"
       y1="0"
       x2="1"
       y2="0"
       gradientUnits="userSpaceOnUse"
       gradientTransform="matrix(0,-61.541138,-61.541138,0,537.73828,129.53027)"
       spreadMethod="pad"
       id="linearGradient380"><stop
         style="stop-opacity:1;stop-color:#ffffff"
         offset="0"
         id="stop382" /><stop
         style="stop-opacity:1;stop-color:#ffffff"
         offset="0.4854273"
         id="stop384" /><stop
         style="stop-opacity:1;stop-color:#a7a9ac"
         offset="1"
         id="stop386" /></linearGradient><clipPath
       clipPathUnits="userSpaceOnUse"
       id="clipPath394"><path
         d="m 431.893,92.567 c 0,-10.725 7.594,-18.377 16.961,-18.377 l 0,0 12.05,0 c 2.734,0 4.948,2.215 4.948,4.948 l 0,0 c 0,2.731 -2.214,4.947 -4.948,4.947 l 0,0 -12.05,0 c -2.639,0 -4.859,1.81 -5.479,4.259 l 0,0 c 0,0 16.49,-10e-4 18.665,-10e-4 l 0,0 c 2.95,0 3.779,3.66 3.779,5.637 l 0,0 0.008,0 c 0,7.807 -7.597,14.135 -16.966,14.135 l 0,0 c -9.371,0 -16.968,-6.139 -16.968,-15.548 m 16.968,7.537 c 3.124,0 5.652,-2.109 5.652,-4.711 l 0,0 -11.308,0 c 0,2.602 2.533,4.711 5.656,4.711"
         id="path396"
         inkscape:connector-curvature="0" /></clipPath><linearGradient
       x1="0"
       y1="0"
       x2="1"
       y2="0"
       gradientUnits="userSpaceOnUse"
       gradientTransform="matrix(0,-61.541138,-61.541138,0,448.87207,129.53027)"
       spreadMethod="pad"
       id="linearGradient402"><stop
         style="stop-opacity:1;stop-color:#ffffff"
         offset="0"
         id="stop404" /><stop
         style="stop-opacity:1;stop-color:#ffffff"
         offset="0.4854273"
         id="stop406" /><stop
         style="stop-opacity:1;stop-color:#a7a9ac"
         offset="1"
         id="stop408" /></linearGradient><clipPath
       clipPathUnits="userSpaceOnUse"
       id="clipPath416"><path
         d="m 0,595.28 841.89,0 L 841.89,0 0,0 0,595.28 Z"
         id="path418"
         inkscape:connector-curvature="0" /></clipPath></defs><sodipodi:namedview
     pagecolor="#ffffff"
     bordercolor="#666666"
     borderopacity="1"
     objecttolerance="10"
     gridtolerance="10"
     guidetolerance="10"
     inkscape:pageopacity="0"
     inkscape:pageshadow="2"
     inkscape:window-width="1676"
     inkscape:window-height="1004"
     id="namedview4"
     showgrid="false"
     fit-margin-top="0"
     fit-margin-left="0"
     fit-margin-right="0"
     fit-margin-bottom="0"
     inkscape:zoom="0.31716168"
     inkscape:cx="-338.95966"
     inkscape:cy="-210.48615"
     inkscape:window-x="0"
     inkscape:window-y="0"
     inkscape:window-maximized="0"
     inkscape:current-layer="svg2" /><g
     id="g10"
     inkscape:groupmode="layer"
     inkscape:label="twitter__logoeps.com"
     transform="matrix(1.25,0,0,-1.25,-325.98375,657.63082)"><g
       id="g12"><g
         id="g14"
         clip-path="url(#clipPath16)"><g
           id="g20"><g
             id="g22"><path
               d="m 260.851,513.451 -0.064,-22.658 c 0,-10.909 8.842,-19.75 19.75,-19.75 l 0,0 8.585,0 c 3.123,0 5.655,2.532 5.655,5.655 l 0,0 c 0,3.123 -2.532,5.654 -5.655,5.654 l 0,0 -8.504,0 c -4.672,0 -8.458,3.787 -8.458,8.459 l 0,0 0,2.849 14.136,0 c 3.123,0 5.655,2.532 5.655,5.655 l 0,0 c 0,3.123 -2.532,5.654 -5.655,5.654 l 0,0 -14.136,0 0,8.482 c 0,3.122 -2.532,5.654 -5.655,5.654 l 0,0 c -3.123,0 -5.654,-2.532 -5.654,-5.654"
               style="fill:url(#linearGradient24);stroke:none"
               id="path30"
               inkscape:connector-curvature="0" /></g></g></g></g><g
       id="g32"><g
         id="g34"
         clip-path="url(#clipPath36)"><g
           id="g40"><g
             id="g42"><path
               d="m 372.525,513.451 0,-22.658 c 0,-10.909 8.777,-19.75 19.684,-19.75 l 0,0 2.932,0 c 3.122,0 5.653,2.532 5.653,5.655 l 0,0 c 0,3.123 -2.531,5.654 -5.653,5.654 l 0,0 -2.85,0 c -4.671,0 -8.457,3.787 -8.457,8.459 l 0,0 0,2.849 8.478,0 c 3.124,0 5.656,2.532 5.656,5.655 l 0,0 c 0,3.123 -2.532,5.654 -5.656,5.654 l 0,0 -8.478,0 0,8.482 c 0,3.122 -2.532,5.654 -5.657,5.654 l 0,0 c -3.121,0 -5.652,-2.532 -5.652,-5.654"
               style="fill:url(#linearGradient44);stroke:none"
               id="path50"
               inkscape:connector-curvature="0" /></g></g></g></g><g
       id="g52"><g
         id="g54"
         clip-path="url(#clipPath56)"><g
           id="g60"><g
             id="g62"><path
               d="m 402.209,513.451 0,-22.658 c 0,-10.909 8.777,-19.75 19.685,-19.75 l 0,0 2.934,0 c 3.119,0 5.653,2.532 5.653,5.655 l 0,0 c 0,3.123 -2.534,5.654 -5.653,5.654 l 0,0 -2.852,0 c -4.672,0 -8.458,3.787 -8.458,8.459 l 0,0 0,2.849 8.479,0 c 3.125,0 5.656,2.532 5.656,5.655 l 0,0 c 0,3.123 -2.531,5.654 -5.656,5.654 l 0,0 -8.479,0 0,8.482 c 0,3.122 -2.532,5.654 -5.656,5.654 l 0,0 c -3.122,0 -5.653,-2.532 -5.653,-5.654"
               style="fill:url(#linearGradient64);stroke:none"
               id="path70"
               inkscape:connector-curvature="0" /></g></g></g></g><g
       id="g72"><g
         id="g74"
         clip-path="url(#clipPath76)"><g
           id="g80"><g
             id="g82"><path
               d="m 486.967,504.969 c -9.368,0 -16.874,-7.594 -16.874,-16.963 l 0,0 0,-11.308 c 0,-3.123 2.53,-5.655 5.653,-5.655 l 0,0 c 3.124,0 5.658,2.532 5.658,5.655 l 0,0 -0.094,11.308 c 0,3.123 2.533,5.654 5.657,5.654 l 0,0 8.482,0 c 3.12,0 5.653,2.532 5.653,5.655 l 0,0 c 0,3.123 -2.533,5.654 -5.653,5.654 l 0,0 -8.482,0 z"
               style="fill:url(#linearGradient84);stroke:none"
               id="path90"
               inkscape:connector-curvature="0" /></g></g></g></g><g
       id="g92"><g
         id="g94"
         clip-path="url(#clipPath96)"><g
           id="g100"><g
             id="g102"><path
               d="m 341.427,499.315 0,-11.309 c 0,-3.123 -2.532,-5.654 -5.654,-5.654 l 0,0 c -3.124,0 -5.656,2.531 -5.656,5.654 l 0,0 0,11.309 c 0,3.123 -2.531,5.654 -5.653,5.654 l 0,0 c -3.124,0 -5.655,-2.531 -5.655,-5.654 l 0,0 0,-11.309 c 0,-3.123 -2.531,-5.654 -5.654,-5.654 l 0,0 c -3.123,0 -5.655,2.531 -5.655,5.654 l 0,0 0,11.309 c 0,3.123 -2.531,5.654 -5.654,5.654 l 0,0 c -3.123,0 -5.654,-2.531 -5.654,-5.654 l 0,0 0,-11.309 c 0,-9.369 7.594,-16.963 16.963,-16.963 l 0,0 c 4.351,0 8.306,1.652 11.309,4.345 l 0,0 c 3.002,-2.693 6.957,-4.345 11.309,-4.345 l 0,0 c 9.368,0 16.961,7.594 16.961,16.963 l 0,0 0,11.309 c 0,3.123 -2.531,5.654 -5.653,5.654 l 0,0 c -3.123,0 -5.654,-2.531 -5.654,-5.654"
               style="fill:url(#linearGradient104);stroke:none"
               id="path110"
               inkscape:connector-curvature="0" /></g></g></g></g><g
       id="g112"><g
         id="g114"
         clip-path="url(#clipPath116)"><g
           id="g120"><g
             id="g122"><path
               d="m 356.976,499.315 0,-22.617 c 0,-3.123 2.53,-5.655 5.654,-5.655 l 0,0 c 3.124,0 5.654,2.532 5.654,5.655 l 0,0 0,22.617 c 0,3.123 -2.53,5.654 -5.654,5.654 l 0,0 c -3.124,0 -5.654,-2.531 -5.654,-5.654"
               style="fill:url(#linearGradient124);stroke:none"
               id="path130"
               inkscape:connector-curvature="0" /></g></g></g></g><g
       id="g132"><g
         id="g134"
         clip-path="url(#clipPath136)"><g
           id="g140"><g
             id="g142"><path
               d="m 356.976,513.451 c 0,-3.123 2.53,-5.655 5.654,-5.655 l 0,0 c 3.124,0 5.654,2.532 5.654,5.655 l 0,0 c 0,3.122 -2.53,5.654 -5.654,5.654 l 0,0 c -3.124,0 -5.654,-2.532 -5.654,-5.654"
               style="fill:url(#linearGradient144);stroke:none"
               id="path150"
               inkscape:connector-curvature="0" /></g></g></g></g><g
       id="g152"><g
         id="g154"
         clip-path="url(#clipPath156)"><g
           id="g160"
           transform="translate(536.2461,504.2573)"><path
             d="m 0,0 c 2.773,8.66 6.166,14.272 10.069,18.34 2.911,3.036 4.413,4 2.702,0.658 0.755,0.606 1.842,1.409 2.685,1.84 4.721,2.226 4.385,0.359 1.134,-1.642 8.879,3.176 8.571,-0.869 -0.819,-2.883 7.675,-0.145 15.839,-5.03 18.187,-15.42 0.326,-1.438 -0.063,-1.302 1.41,-1.562 3.18,-0.564 6.169,-0.529 9.084,0.397 -0.315,-2.15 -3.155,-3.547 -7.583,-4.469 -1.643,-0.342 -1.979,-0.252 -0.011,-0.695 2.423,-0.544 5.132,-0.685 7.997,-0.551 -2.23,-2.569 -5.791,-3.883 -10.189,-3.936 -2.752,-10.051 -9.042,-17.246 -16.999,-21.765 -18.69,-10.607 -45.895,-9.068 -59.537,10.21 8.954,-7.025 22.214,-8.573 32.063,1.218 -6.453,0 -8.125,4.831 -3.007,7.441 -4.844,0.05 -7.922,1.582 -9.729,4.357 -0.686,1.053 -0.694,1.134 0.426,1.942 1.228,0.89 2.903,1.285 4.638,1.418 -5.014,1.435 -8.078,4.055 -9.14,7.568 -0.351,1.162 -0.407,1.103 0.775,1.403 1.158,0.293 2.647,0.449 3.978,0.516 -3.939,2.388 -6.29,5.315 -6.889,8.551 -0.567,3.056 0.018,2.271 2.303,1.397 C -16.229,10.42 -6.034,6.22 0,0"
             style="fill:#00aeef;fill-opacity:1;fill-rule:evenodd;stroke:none"
             id="path162"
             inkscape:connector-curvature="0" /></g></g></g><g
       id="g164"><g
         id="g166"
         clip-path="url(#clipPath168)"><g
           id="g172"><g
             id="g174"><path
               d="m 431.893,489.42 c 0,-10.725 7.594,-18.377 16.961,-18.377 l 0,0 12.05,0 c 2.734,0 4.948,2.216 4.948,4.948 l 0,0 c 0,2.733 -2.214,4.947 -4.948,4.947 l 0,0 -12.05,0 c -2.639,0 -4.859,1.811 -5.479,4.259 l 0,0 c 0,0 16.49,-0.002 18.665,-0.002 l 0,0 c 2.95,0 3.779,3.662 3.779,5.638 l 0,0 0.008,0 c 0,7.808 -7.597,14.136 -16.966,14.136 l 0,0 c -9.371,0 -16.968,-6.139 -16.968,-15.549 m 16.968,7.538 c 3.124,0 5.652,-2.109 5.652,-4.711 l 0,0 -11.308,0 c 0,2.602 2.533,4.711 5.656,4.711"
               style="fill:url(#linearGradient176);stroke:none"
               id="path182"
               inkscape:connector-curvature="0" /></g></g></g></g></g></svg>